<svg xmlns="http://www.w3.org/2000/svg" viewBox="0 0 1024 1024" width="1024" height="1024" role="img">
  <title>Glad You Made It — Tag Icon</title>
  <desc>Square favicon: tilted name tag on forest green background with soft drop shadow.</desc>
  <defs>
    <filter id="tagShadow" x="-15%" y="-15%" width="130%" height="130%">
      <feGaussianBlur in="SourceAlpha" stdDeviation="14"/>
      <feOffset dx="0" dy="10" result="offsetblur"/>
      <feComponentTransfer>
        <feFuncA type="linear" slope="0.42"/>
      </feComponentTransfer>
      <feMerge>
        <feMergeNode/>
        <feMergeNode in="SourceGraphic"/>
      </feMerge>
    </filter>
    <clipPath id="tagShape">
      <rect x="0" y="0" width="757.76" height="505.17" rx="33.68"/>
    </clipPath>
  </defs>

  <!-- Forest background -->
  <rect width="1024" height="1024" fill="#2B5747"/>

  <!-- Tilted name tag with drop shadow -->
  <g filter="url(#tagShadow)" transform="translate(512.0,512.0) rotate(-2.5) translate(-378.88,-252.59)">
    <g clip-path="url(#tagShape)">
      <rect x="0" y="0" width="757.76" height="505.17" fill="#F4ECDA"/>
      <rect x="0" y="0" width="757.76" height="193.65" fill="#F2A065"/>
    </g>
    <rect x="0.75" y="0.75" width="756.26" height="503.67" rx="32.93" fill="none" stroke="#2B5747" stroke-opacity="0.18" stroke-width="1.5"/>
    <g fill="#F4ECDA" fill-rule="nonzero">
      <path d="M331 -14Q250 -14 185.0 23.0Q120 60 82.5 134.5Q45 209 45 322Q45 405 66.5 470.0Q88 535 131.0 580.5Q174 626 236.5 650.0Q299 674 381 674Q443 674 493.5 660.0Q544 646 581.0 620.0Q618 594 638.5 558.0Q659 522 660 477L508 430Q507 467 489.0 492.0Q471 517 441.0 530.5Q411 544 374 544Q322 544 286.5 520.5Q251 497 232.5 449.0Q214 401 214 329Q214 275 224.5 234.5Q235 194 256.0 167.0Q277 140 307.5 126.5Q338 113 380 113Q422 113 452.5 126.0Q483 139 501.0 166.0Q519 193 520 235H403V349H680V221V0H570L568 165H548Q531 107 504.0 67.0Q477 27 435.0 6.5Q393 -14 331 -14Z" transform="translate(75.885,137.519) scale(0.109454,-0.109454)"/>
      <path d="M69 0V660H230V0ZM98 0V135H499V0Z" transform="translate(164.097,137.519) scale(0.109454,-0.109454)"/>
      <path d="M14 0 238 660H474L698 0H522L364 534H348L190 0ZM147 124V232H589V124Z" transform="translate(228.229,137.519) scale(0.109454,-0.109454)"/>
      <path d="M144 0V130H335Q387 130 422.0 152.0Q457 174 474.5 218.0Q492 262 492 328Q492 381 481.0 419.0Q470 457 448.5 481.5Q427 506 393.5 518.0Q360 530 315 530H144V660H309Q432 660 510.0 621.0Q588 582 624.0 509.5Q660 437 660 336Q660 258 641.5 201.0Q623 144 591.0 105.5Q559 67 517.5 43.5Q476 20 430.5 10.0Q385 0 340 0ZM69 0V660H230V0Z" transform="translate(314.580,137.519) scale(0.109454,-0.109454)"/>
      <path d="M251 0V203L4 660H198L329 347H335L466 660H658L413 205V0Z" transform="translate(432.992,137.519) scale(0.109454,-0.109454)"/>
      <path d="M360 -14Q288 -14 230.0 8.0Q172 30 130.5 73.0Q89 116 67.0 179.5Q45 243 45 327Q45 445 86.5 521.5Q128 598 201.0 636.0Q274 674 366 674Q437 674 495.0 652.0Q553 630 594.5 587.0Q636 544 658.5 479.5Q681 415 681 331Q681 244 657.5 179.5Q634 115 591.5 72.0Q549 29 490.0 7.5Q431 -14 360 -14ZM365 112Q414 112 447.5 136.5Q481 161 498.5 207.5Q516 254 516 321Q516 392 498.0 441.5Q480 491 445.5 516.5Q411 542 361 542Q313 542 279.5 517.5Q246 493 228.0 445.5Q210 398 210 329Q210 277 220.5 236.5Q231 196 250.0 168.5Q269 141 298.5 126.5Q328 112 365 112Z" transform="translate(513.871,137.519) scale(0.109454,-0.109454)"/>
      <path d="M368 -14Q305 -14 256.0 -1.5Q207 11 171.0 35.0Q135 59 111.5 93.0Q88 127 76.5 169.5Q65 212 65 262V660H227V267Q227 219 242.0 188.0Q257 157 288.0 142.5Q319 128 367 128Q415 128 446.0 142.5Q477 157 492.0 188.0Q507 219 507 267V660H668V262Q668 131 593.5 58.5Q519 -14 368 -14Z" transform="translate(601.645,137.519) scale(0.109454,-0.109454)"/>
    </g>
    <g fill="#2B5747" fill-rule="nonzero">
      <path d="M675 -48Q671 -52 656.0 -50.5Q641 -49 632 -36Q625 -22 624.0 -4.0Q623 14 624 46Q630 81 644.0 138.0Q658 195 675.5 265.5Q693 336 711 410Q720 445 725.5 469.0Q731 493 733.5 505.5Q736 518 736 518Q735 516 733.5 514.0Q732 512 731.0 510.0Q730 508 729 506Q729 506 725.5 499.0Q722 492 711 475Q703 463 696.0 447.0Q689 431 672 405Q656 375 636.0 336.0Q616 297 602 274Q595 263 589.5 255.0Q584 247 582 242Q578 231 569.0 215.0Q560 199 548 184Q542 175 532.5 163.0Q523 151 516.0 141.5Q509 132 509 132Q507 126 496.0 113.0Q485 100 469.5 84.5Q454 69 438 56Q403 28 380.5 21.0Q358 14 329 38Q316 54 308.0 70.5Q300 87 300.0 116.0Q300 145 310 197Q317 230 325.5 267.0Q334 304 343.0 338.5Q352 373 359.5 398.5Q367 424 370 434Q373 459 371.0 460.5Q369 462 361 449Q354 438 335.0 403.0Q316 368 292.5 321.0Q269 274 247 227Q206 151 178.0 100.0Q150 49 132.0 18.5Q114 -12 104.5 -27.5Q95 -43 90.5 -49.5Q86 -56 84 -58Q69 -57 58.0 -44.0Q47 -31 40 -13Q38 -3 37.0 8.0Q36 19 39.5 32.5Q43 46 51 62Q64 88 76.0 106.0Q88 124 91 128Q96 135 99.0 143.0Q102 151 103 158Q108 164 118.5 183.0Q129 202 140 224Q148 237 162.0 260.5Q176 284 192.0 311.5Q208 339 220 362Q264 441 290.0 488.5Q316 536 327 549Q334 554 339.5 568.5Q345 583 349 590Q363 618 377.5 636.5Q392 655 403 655Q411 655 423.5 649.0Q436 643 448 632Q459 619 468.5 597.5Q478 576 472 541Q471 525 467.0 502.5Q463 480 459.0 458.0Q455 436 451 421Q443 376 433.5 335.5Q424 295 416.0 261.0Q408 227 403.0 201.5Q398 176 396.5 160.0Q395 144 400 139Q403 138 408.5 141.5Q414 145 417 149Q423 157 428.0 165.0Q433 173 441 185Q457 207 474.5 233.5Q492 260 516.5 299.5Q541 339 575.0 397.5Q609 456 658 543Q681 578 702.0 613.0Q723 648 740 667Q755 683 777.5 678.0Q800 673 819.0 653.0Q838 633 840 604Q841 590 834.5 554.5Q828 519 817.0 475.0Q806 431 792 389Q789 372 782.0 344.0Q775 316 767.0 287.0Q759 258 752 235Q745 201 740.5 181.0Q736 161 736 135Q727 119 724.0 89.0Q721 59 721 27Q717 -12 704.5 -28.0Q692 -44 688 -43Q680 -40 675 -48Z" transform="translate(117.621,390.106) scale(0.168391,-0.168391)"/>
      <path d="M124 21Q120 29 106.5 37.0Q93 45 93 49Q93 53 88.5 61.5Q84 70 80 74Q75 80 83.0 103.5Q91 127 107.0 161.0Q123 195 142 230Q150 238 158.0 251.0Q166 264 170 268Q170 272 173.0 275.5Q176 279 180 279L188 295Q190 299 200.5 311.0Q211 323 226.0 337.5Q241 352 256.5 365.0Q272 378 282 384Q303 398 325.5 397.0Q348 396 364 383Q367 380 377.5 371.0Q388 362 401.5 351.0Q415 340 425 331L462 298L445 248Q432 208 438.5 178.0Q445 148 457 126Q462 115 470.5 109.0Q479 103 493 101Q501 100 508.0 95.0Q515 90 515 79Q515 55 506.5 44.5Q498 34 488 32Q455 28 425.0 39.0Q395 50 371 96Q367 102 360.5 118.5Q354 135 353 140Q349 135 342.5 127.5Q336 120 330 114Q259 42 208.5 20.5Q158 -1 124 21ZM179 104Q186 103 201.0 111.5Q216 120 241 140Q275 169 297.0 188.0Q319 207 340 237L362 273Q352 296 344.0 303.0Q336 310 328 310Q315 310 297.0 293.5Q279 277 256.5 245.5Q234 214 206 167Q193 145 186.0 124.5Q179 104 179 104Z" transform="translate(240.378,390.106) scale(0.168391,-0.168391)"/>
      <path d="M374 -19Q361 -22 348.5 -12.5Q336 -3 331 8Q325 24 323.5 38.5Q322 53 321 72L320 106L279 69Q245 37 215.5 23.5Q186 10 162 10Q151 12 135.5 24.5Q120 37 107.5 52.5Q95 68 90 78Q84 92 86.5 117.0Q89 142 98.5 172.0Q108 202 122.5 231.0Q137 260 156 281Q189 331 238.0 343.5Q287 356 325 335Q343 326 351.0 328.0Q359 330 361 341Q365 357 370.0 371.0Q375 385 384 413Q409 489 427.5 532.0Q446 575 461 607Q472 630 483.0 639.0Q494 648 502 647Q513 647 529.5 639.0Q546 631 551 617Q555 608 554.5 598.0Q554 588 548 577Q535 553 517.5 513.5Q500 474 482.5 427.0Q465 380 450.0 334.0Q435 288 425 253Q419 231 415.5 197.0Q412 163 410.5 127.5Q409 92 410.0 64.5Q411 37 413 29Q419 9 413.0 -1.0Q407 -11 396.0 -14.5Q385 -18 374 -19ZM209 102Q223 107 234.0 114.0Q245 121 260 132Q290 155 303.5 172.0Q317 189 325 214Q330 229 325.5 240.0Q321 251 310 261Q299 270 282.0 268.5Q265 267 243 247Q219 225 202.0 196.0Q185 167 174 113Q172 103 181.0 99.0Q190 95 209 102Z" transform="translate(315.481,390.106) scale(0.168391,-0.168391)"/>
      <path d="M293 20Q263 3 229.5 0.5Q196 -2 167.0 9.5Q138 21 120 44Q110 57 101.0 85.5Q92 114 98 163Q104 209 126.5 256.0Q149 303 182.0 339.0Q215 375 254 388Q268 393 282.5 395.5Q297 398 321 396Q344 393 362.0 384.5Q380 376 388 366Q404 350 409.0 335.0Q414 320 413 306Q408 274 384.5 237.0Q361 200 319 182Q302 175 279.0 173.0Q256 171 216 179Q192 184 184.5 174.0Q177 164 178 135Q180 117 186.5 103.5Q193 90 211 85Q234 81 244.0 84.5Q254 88 269 95Q277 100 284.5 106.0Q292 112 299.5 118.0Q307 124 312 127Q317 131 322.0 132.0Q327 133 332 133Q343 132 353.0 121.0Q363 110 366 100Q366 92 356.0 77.5Q346 63 329.5 47.5Q313 32 293 20ZM280 243Q287 246 300.5 257.0Q314 268 325.0 280.5Q336 293 336 300Q336 311 321.5 319.0Q307 327 284 322Q276 320 265.0 311.0Q254 302 243.0 290.5Q232 279 224.0 268.5Q216 258 213 252Q217 247 229.0 244.0Q241 241 255.5 241.0Q270 241 280 243Z" transform="translate(383.174,390.106) scale(0.168391,-0.168391)"/>
      <path d="M181 -41Q174 -30 157.0 -27.0Q140 -24 105 -26Q91 -28 76.0 -24.0Q61 -20 52.0 -12.0Q43 -4 45 4Q46 16 73.0 30.0Q100 44 143 45L185 46L195 66Q199 77 201.5 90.0Q204 103 211 126Q215 140 223.0 165.0Q231 190 240.0 218.5Q249 247 256.0 270.0Q263 293 265 302Q269 311 276.0 332.5Q283 354 289.5 376.5Q296 399 298 409Q324 488 332.0 519.5Q340 551 336 552Q332 552 317.0 551.0Q302 550 284.0 548.5Q266 547 252.0 545.0Q238 543 235 541Q230 534 218.0 543.5Q206 553 203 563Q202 572 203.0 580.0Q204 588 209 591Q216 597 238.0 604.5Q260 612 287.5 618.0Q315 624 338 627Q355 629 372.0 634.5Q389 640 399 648Q408 651 416.5 653.0Q425 655 434 654Q442 649 461.5 649.0Q481 649 503 650Q559 655 581.5 646.5Q604 638 611 624Q616 605 609.0 592.5Q602 580 585 581Q576 579 560.0 577.5Q544 576 518 575Q452 569 447 561Q443 557 440.5 553.0Q438 549 434 544Q435 540 429.5 520.5Q424 501 416 479Q412 466 404.0 442.0Q396 418 387.5 392.5Q379 367 372.0 346.5Q365 326 362 319Q358 310 355.5 299.5Q353 289 352 284Q338 235 328.5 202.0Q319 169 312.0 144.5Q305 120 299.0 97.5Q293 75 285 47Q285 47 302.0 48.5Q319 50 345 52Q392 57 409.0 58.0Q426 59 429.0 55.5Q432 52 435 43Q455 16 432.5 -2.0Q410 -20 354 -19Q302 -21 277.5 -22.5Q253 -24 246.0 -27.0Q239 -30 239 -37Q240 -53 219.5 -56.5Q199 -60 181 -41Z" transform="translate(480.167,390.106) scale(0.168391,-0.168391)"/>
      <path d="M171 -1Q160 1 147.0 12.5Q134 24 123.5 38.5Q113 53 110 63Q110 65 107.5 68.0Q105 71 105 71Q101 74 100.5 97.5Q100 121 103.0 150.0Q106 179 110 196Q115 212 125.0 239.5Q135 267 142 289L169 347L129 358Q122 360 117.5 366.0Q113 372 113 376Q113 384 122.0 399.0Q131 414 135 414Q140 413 153.5 413.0Q167 413 180.0 414.0Q193 415 196 416Q200 418 204.0 421.5Q208 425 210 432Q215 443 219.0 449.0Q223 455 230 467Q237 480 241.5 489.0Q246 498 256 514Q261 521 267.0 531.0Q273 541 282 548Q291 556 311.5 559.5Q332 563 347 550Q355 540 356.0 531.0Q357 522 348 508Q340 491 329.5 477.5Q319 464 310 447Q294 425 304.0 422.0Q314 419 360 426Q389 431 402.0 420.0Q415 409 417 392Q420 368 412.0 363.0Q404 358 366 358Q342 354 325.0 353.5Q308 353 300 353Q287 352 283.0 352.0Q279 352 271 350Q263 348 259.5 343.5Q256 339 252 331Q248 327 240.0 310.0Q232 293 220 273Q206 231 196.5 192.5Q187 154 180 116Q177 97 181.5 88.5Q186 80 207 78Q218 77 239.0 78.5Q260 80 274 84Q285 89 297.0 94.5Q309 100 319 106Q328 111 337.0 116.5Q346 122 346 122Q351 130 360.5 119.5Q370 109 374 97Q374 85 369.0 68.5Q364 52 332 34Q287 6 242.0 0.0Q197 -6 171 -1Z" transform="translate(549.039,390.106) scale(0.168391,-0.168391)"/>
      <path d="M199 161Q171 156 155.0 184.5Q139 213 157 285Q163 297 167.0 308.5Q171 320 171 327Q175 340 181.5 357.5Q188 375 195.0 390.5Q202 406 205 411Q209 411 213.5 418.0Q218 425 218 432Q218 440 221.5 450.0Q225 460 229 464Q229 469 233.0 475.0Q237 481 237 485Q237 489 239.5 492.0Q242 495 242 499Q251 515 265.5 546.5Q280 578 294.5 613.0Q309 648 319.0 675.0Q329 702 329 708Q331 716 335.0 723.0Q339 730 347 728Q351 731 359.0 731.5Q367 732 371 732Q371 732 380.0 728.0Q389 724 396 716Q404 709 405.0 697.0Q406 685 406 673Q405 654 392.0 630.0Q379 606 363 577Q353 558 343.5 541.0Q334 524 334 520Q334 516 330.0 508.0Q326 500 321 488Q315 478 309.5 464.0Q304 450 300.0 438.5Q296 427 296 424Q295 420 293.5 416.0Q292 412 288 408Q284 408 283.5 402.5Q283 397 283 397Q283 393 278.5 378.5Q274 364 264 344Q245 291 237.0 259.5Q229 228 227 206Q225 182 216.0 173.5Q207 165 199 161ZM146 6Q125 -2 111.0 -1.5Q97 -1 80 12Q60 32 66.5 52.5Q73 73 102 92Q122 105 131.5 105.5Q141 106 160 98Q194 77 190.0 51.5Q186 26 146 6Z" transform="translate(604.777,390.106) scale(0.168391,-0.168391)"/>
    </g>
    <path d="M 189.44 446.24 Q 378.88 471.50 572.53 446.24" fill="none" stroke="#2B5747" stroke-width="6.31" stroke-linecap="round" stroke-linejoin="round"/>
  </g>
</svg>
